<svg width="16" height="16" viewBox="0 0 16 16" fill="none" xmlns="http://www.w3.org/2000/svg">
<path d="M13.5 1C13.75 1 14 1.25 14 1.5V3H15.5C15.75 3 16 3.25 16 3.5C16 3.78125 15.75 4 15.5 4H14V5.5C14 5.78125 13.75 6 13.5 6C13.2188 6 13 5.78125 13 5.5V4H11.5C11.2188 4 11 3.78125 11 3.5C11 3.25 11.2188 3 11.5 3H13V1.5C13 1.25 13.2188 1 13.5 1ZM13.5 10C13.75 10 14 10.25 14 10.5V12H15.5C15.75 12 16 12.25 16 12.5C16 12.7812 15.75 13 15.5 13H14V14.5C14 14.7812 13.75 15 13.5 15C13.2188 15 13 14.7812 13 14.5V13H11.5C11.2188 13 11 12.7812 11 12.5C11 12.25 11.2188 12 11.5 12H13V10.5C13 10.25 13.2188 10 13.5 10ZM4.25 6.78125L1.6875 7.96875L4.25 9.15625C4.46875 9.25 4.65625 9.4375 4.75 9.65625L5.9375 12.2188L7.125 9.65625C7.21875 9.4375 7.40625 9.25 7.625 9.15625L10.1875 7.96875L7.625 6.78125C7.40625 6.6875 7.21875 6.5 7.125 6.28125L5.9375 3.71875L4.75 6.28125C4.65625 6.5 4.46875 6.6875 4.25 6.78125ZM3.84375 10.0625L0.28125 8.4375C0.09375 8.34375 0 8.15625 0 7.96875C0 7.78125 0.09375 7.59375 0.28125 7.53125L3.84375 5.875L5.5 2.3125C5.5625 2.125 5.75 2 5.9375 2C6.125 2 6.3125 2.125 6.40625 2.3125L8.03125 5.875L11.5938 7.5C11.7812 7.59375 11.9062 7.78125 11.9062 7.96875C11.9062 8.15625 11.7812 8.34375 11.5938 8.40625L8.03125 10.0625L6.40625 13.625C6.3125 13.8125 6.125 13.9375 5.9375 13.9375C5.75 13.9375 5.5625 13.8125 5.5 13.625L3.84375 10.0625Z" fill="white"/>
</svg>
