<svg xmlns="http://www.w3.org/2000/svg" viewBox="0 0 24 24">
    <path d="M0 0h24v24H0z" style="fill:#fff"></path>
	<path d="M22.06 13.19c-.66 0-1.19-.53-1.19-1.19s.53-1.19 1.19-1.19 1.19.53 1.19 1.19-.53 1.19-1.19 1.19Zm.51-4.69a1.04 1.04 0 0 0-1.3-.66c-.54.18-.83.76-.65 1.3s.76.83 1.3.65c.54-.18.83-.76.66-1.3h-.01ZM21 5.81a.868.868 0 0 0-1.21-.22c-.4.27-.49.82-.22 1.21.27.4.82.5 1.22.23.4-.28.49-.81.22-1.22Zm-2.18-2.06a.75.75 0 0 0-1.06.1c-.26.32-.22.8.1 1.06.32.27.8.22 1.06-.1.27-.32.22-.8-.1-1.06Zm-2.4-1.24c-.31-.14-.67 0-.81.3s0 .67.3.81c.31.15.67 0 .81-.29.14-.31.01-.67-.3-.81Zm-2.29-.62a.523.523 0 0 0-.62.41c-.06.28.12.56.41.62.28.06.57-.12.62-.41a.523.523 0 0 0-.41-.62ZM12 1.72c-.25 0-.45.2-.45.45s.2.45.45.45.45-.2.45-.45-.19-.45-.45-.45ZM3.13 12c0-.65-.53-1.19-1.19-1.19S.75 11.34.75 12s.53 1.19 1.19 1.19 1.19-.53 1.19-1.19Zm.26 2.86c-.18-.54-.76-.83-1.3-.65-.55.18-.83.76-.66 1.3.18.54.76.83 1.3.66.54-.18.83-.76.66-1.3Zm1.05 2.34a.888.888 0 0 0-1.22-.22c-.4.27-.5.82-.23 1.22.28.39.82.49 1.22.22s.5-.82.22-1.22Zm1.7 1.89a.748.748 0 0 0-1.06.1.75.75 0 0 0 .1 1.06c.32.27.8.22 1.06-.1s.22-.8-.1-1.06Zm1.95 1.29a.606.606 0 0 0-.81.29.61.61 0 1 0 1.11.51c.14-.3 0-.67-.3-.81Zm2 .71a.526.526 0 0 0-.62.41c-.06.28.12.57.41.62.28.06.56-.12.62-.41a.523.523 0 0 0-.41-.62Zm1.9.29c-.25 0-.45.21-.45.45s.2.45.45.45.45-.2.45-.45-.2-.45-.45-.45ZM2.1 9.8c.54.18 1.12-.12 1.3-.65.18-.54-.11-1.12-.66-1.3-.54-.18-1.12.11-1.3.65-.17.53.11 1.12.66 1.3Zm1.13-2.78c.4.28.94.17 1.22-.22a.876.876 0 0 0-1.44-1c-.28.4-.17.94.22 1.22ZM5.09 4.8c.27.32.74.37 1.06.1.32-.26.37-.74.1-1.06s-.74-.37-1.06-.1c-.32.26-.37.74-.1 1.06Zm2.2-1.49c.14.31.51.44.81.29a.61.61 0 1 0-.81-.3Zm2.18-.8c.06.29.34.47.62.41.29-.06.47-.34.41-.62a.53.53 0 0 0-.62-.41c-.29.06-.47.33-.41.62Zm11.78 13.66a1.031 1.031 0 0 0 .64-1.96c-.54-.18-1.12.12-1.3.65-.18.54.11 1.12.65 1.3h.01Zm-1.48 2.27c.39.27.94.17 1.21-.22a.88.88 0 0 0-.22-1.22.869.869 0 1 0-.99 1.43Zm-2.03 1.75c.26.32.74.37 1.06.1s.37-.74.1-1.06a.747.747 0 0 0-1.06-.1c-.32.26-.37.74-.1 1.06Zm-2.15 1.04c.14.31.51.44.81.3.31-.15.44-.51.3-.82a.61.61 0 0 0-.81-.3c-.3.14-.43.51-.3.81Zm-2.1.52c.06.29.34.47.62.41.29-.06.47-.34.41-.62s-.34-.46-.62-.41a.53.53 0 0 0-.41.62Zm6.04-13.81a.918.918 0 0 0-1.23-.37c-.44.24-.6.79-.36 1.23s.79.61 1.23.37c.44-.24.6-.8.36-1.24Zm-1.7-2.13a.84.84 0 0 0-1.19.04c-.31.34-.3.87.04 1.19.34.31.87.3 1.19-.04s.3-.87-.04-1.19Zm-2.11-1.28a.713.713 0 0 0-.96.33c-.17.35-.03.78.32.95a.719.719 0 0 0 .63-1.29h.01Zm-2.16-.51c-.34-.07-.65.15-.71.48s.15.65.48.71c.33.06.65-.15.71-.48s-.16-.64-.48-.71Zm-2.08.07c-.25.02-.45.24-.43.49.02.26.24.45.5.44.26-.02.45-.24.44-.5a.462.462 0 0 0-.5-.43Zm-1.76.42c-.21.06-.33.29-.27.5.07.21.29.33.5.27s.33-.29.27-.5a.402.402 0 0 0-.5-.27Zm-1.48.67c-.17.09-.23.3-.14.47.09.16.3.23.47.14.16-.09.23-.3.14-.47s-.31-.23-.47-.14ZM6.05 15.3a.905.905 0 1 0-1.59.87c.24.44.79.61 1.23.37s.6-.8.36-1.24Zm1.26 1.78c-.34-.32-.87-.3-1.19.04s-.3.87.04 1.19.87.3 1.19-.03c.32-.35.3-.88-.04-1.19Zm1.54 1.18a.726.726 0 0 0-.96.32c-.17.35-.03.77.31.96.35.17.78.03.97-.33.18-.35.03-.78-.32-.96Zm1.82.67a.611.611 0 0 0-.71.47c-.06.33.15.65.48.71.34.06.65-.15.71-.48s-.15-.65-.48-.71Zm1.78.19c-.26.01-.45.24-.43.49.02.26.24.45.5.43s.45-.24.43-.5c0-.26-.24-.45-.5-.43Zm1.59-.25c-.21.07-.33.29-.27.5.07.22.29.33.5.27a.406.406 0 0 0-.23-.78Zm1.38-.49c-.17.09-.23.3-.14.47.09.17.3.23.47.14s.23-.3.14-.47a.346.346 0 0 0-.47-.14ZM4.54 14.07a.715.715 0 1 0-.25-1.41c-.39.07-.65.44-.58.83.07.38.44.65.83.57Zm-.23-2.28c.32.04.61-.2.65-.52a.592.592 0 0 0-.53-.64c-.32-.03-.6.2-.64.52s.2.61.52.64Zm.43-2.1c.28.11.61-.02.72-.31.11-.28-.03-.6-.31-.72-.28-.11-.6.02-.72.31-.11.28.03.6.31.72Zm.93-1.78c.21.15.5.11.65-.1.16-.2.11-.5-.09-.64a.462.462 0 0 0-.65.09c-.16.21-.11.5.09.65Zm1.16-1.34c.15.17.4.19.57.05.17-.15.19-.4.05-.57a.408.408 0 0 0-.62.53Zm12.88 4.77a.7.7 0 0 0 .57-.83c-.06-.39-.44-.65-.83-.58s-.65.44-.57.83.44.65.83.57Zm-.15 2.05c.32.04.61-.2.64-.51.04-.33-.2-.61-.52-.64a.6.6 0 0 0-.65.52c-.03.32.2.61.52.64h.01Zm-.72 1.96c.28.12.61-.02.72-.31.11-.28-.02-.6-.31-.72-.28-.11-.6.02-.72.31-.11.28.03.6.31.72Zm-1.07 1.51c.21.15.5.11.65-.1.16-.21.11-.5-.09-.65-.21-.15-.51-.11-.65.1-.15.21-.11.5.1.65h-.01Zm-1.23 1.11c.15.17.4.19.57.05.17-.14.19-.4.05-.57a.418.418 0 0 0-.57-.04.41.41 0 0 0-.05.57Zm-.09-10.4a.854.854 0 0 0-1.21 0c-.33.32-.33.86 0 1.19s.87.34 1.2 0c.34-.34.34-.87 0-1.2h.01Zm-2.14-1.31a.773.773 0 0 0-1 .42c-.16.39.04.85.42 1 .4.16.84-.03 1-.43a.758.758 0 0 0-.42-.99Zm-2.3-.28c-.37 0-.68.3-.68.68 0 .35.3.66.68.66.36 0 .67-.3.67-.67s-.3-.67-.66-.67h-.01Zm-2.22.69c-.26.1-.38.4-.28.65.11.26.4.38.66.28.26-.11.37-.41.27-.66-.1-.26-.4-.38-.65-.27Zm-1.07 8.58a.822.822 0 0 0-1.19 0c-.34.34-.34.87-.01 1.2.34.33.87.33 1.21 0 .33-.33.33-.87 0-1.2Zm1.52 1.09a.774.774 0 0 0-1 .43c-.15.39.04.84.43.99.38.16.83-.02.99-.41a.78.78 0 0 0-.42-1.01Zm1.73.35c-.37 0-.67.3-.68.67 0 .38.31.67.67.68.37 0 .67-.3.68-.67 0-.37-.3-.67-.68-.68h.01Zm1.83-.26c-.25.1-.38.39-.27.65.1.26.4.38.65.28.26-.11.38-.39.27-.66-.1-.26-.4-.38-.65-.27Zm-6.63-1.79c.37-.14.56-.55.4-.93a.697.697 0 0 0-.92-.4.71.71 0 0 0-.41.92c.15.36.55.55.92.41Zm-.54-2.17c.3 0 .55-.24.56-.55 0-.3-.25-.55-.54-.56-.31 0-.56.23-.57.54 0 .31.24.56.55.57Zm.31-2.07c.24.09.51-.02.61-.25.09-.23-.01-.5-.25-.61-.24-.1-.51.02-.61.25-.1.23.01.5.24.61h.01Zm10.39.3c.37-.14.54-.55.39-.92a.7.7 0 0 0-.9-.41c-.38.15-.56.56-.42.92.15.37.56.55.93.41Zm0 1.96c.31 0 .56-.24.56-.55s-.23-.56-.54-.56-.56.23-.57.54c0 .3.25.56.55.57Zm-.66 1.81c.24.1.51-.01.61-.25.1-.23-.01-.51-.25-.6-.24-.1-.51 0-.6.25-.11.24.01.51.24.6ZM7.94 8.59c.19.18.48.19.66 0 .17-.18.18-.47 0-.65a.459.459 0 1 0-.65.65Zm7.43 7.48c.19.18.47.19.66 0 .18-.17.19-.45 0-.64a.45.45 0 0 0-.65-.01c-.18.18-.18.48 0 .65h-.01Zm-4.23-7.95a.66.66 0 0 0-.52.78c.09.36.44.59.8.5.35-.08.58-.43.5-.79a.664.664 0 0 0-.78-.5ZM9.2 9.21c-.24.25-.25.65 0 .89a.634.634 0 0 0 .9-.89.63.63 0 0 0-.89 0Zm-.79 1.86c-.06.24.07.46.31.53.22.06.45-.08.51-.3a.42.42 0 0 0-.3-.52.427.427 0 0 0-.52.29Zm4.18 3.59c-.34.09-.58.44-.5.78.07.36.44.59.79.51.36-.07.58-.44.51-.79a.68.68 0 0 0-.8-.5Zm1.33-.7c-.24.25-.24.66 0 .91.25.24.65.24.88 0 .26-.25.27-.66.02-.9a.634.634 0 0 0-.9 0Zm.87-1.2c-.05.24.07.47.3.53.23.06.47-.08.53-.3a.426.426 0 0 0-.31-.52.415.415 0 0 0-.52.29Zm-1.05-3.67a.58.58 0 0 0-.34-.75c-.31-.12-.63.03-.76.35-.12.3.04.63.35.75.31.1.64-.04.76-.35h-.01Zm-2.35 6.28a.58.58 0 0 0-.34-.75.577.577 0 0 0-.76.35c-.12.3.04.63.35.75.31.1.64-.05.75-.35Zm3.48-5.05c.2-.16.22-.43.08-.61a.452.452 0 0 0-.61-.07c-.18.14-.22.42-.07.6.14.19.42.23.6.08Zm-5.18 4.07c.19-.16.22-.43.08-.61a.454.454 0 0 0-.62-.07c-.18.14-.22.41-.07.6.14.19.42.23.6.08Zm5.58-2.73c.16-.04.27-.2.24-.37-.04-.17-.2-.29-.37-.25-.17.03-.28.2-.24.36.03.17.2.29.37.25Zm-6.34 1.33c.16-.04.27-.2.24-.37-.04-.17-.2-.29-.37-.24-.18.03-.28.2-.24.36.03.18.2.3.37.26Z" style="fill:#f26724"></path>
</svg>
